<svg xmlns="http://www.w3.org/2000/svg"  viewBox="0 0 50 50" width="50px" height="50px"><path d="M25,2C12.32,2,2,12.32,2,25s10.32,23,23,23s23-10.32,23-23S37.68,2,25,2z M40,30h-4.5c-1.93,0-3.5-1.57-3.5-3.5v-3	c0-0.83-0.67-1.5-1.5-1.5S29,22.67,29,23.5v8c0,1.93-1.57,3.5-3.5,3.5S22,33.43,22,31.5v-13c0-0.83-0.67-1.5-1.5-1.5	S19,17.67,19,18.5v8c0,1.93-1.57,3.5-3.5,3.5H10v-2h5.5c0.83,0,1.5-0.67,1.5-1.5v-8c0-1.93,1.57-3.5,3.5-3.5s3.5,1.57,3.5,3.5v13	c0,0.83,0.67,1.5,1.5,1.5s1.5-0.67,1.5-1.5v-8c0-1.93,1.57-3.5,3.5-3.5s3.5,1.57,3.5,3.5v3c0,0.83,0.67,1.5,1.5,1.5H40V30z"/></svg>